<mxfile host="65bd71144e" modified="2020-10-19T07:22:00.475Z" agent="5.0 (Windows NT 10.0; Win64; x64) AppleWebKit/537.36 (KHTML, like Gecko) Code/1.50.1 Chrome/83.0.4103.122 Electron/9.2.1 Safari/537.36" etag="zqXx9HwjZASSNWPsKy5p" version="13.6.5">
    <diagram id="bjtUC3DR2Rm7aZbc2C3K" name="第 1 页">
        <mxGraphModel dx="521" dy="432" grid="1" gridSize="10" guides="1" tooltips="1" connect="1" arrows="1" fold="1" page="1" pageScale="1" pageWidth="827" pageHeight="1169" math="0" shadow="0">
            <root>
                <mxCell id="0"/>
                <mxCell id="1" parent="0"/>
                <mxCell id="12" style="edgeStyle=orthogonalEdgeStyle;rounded=0;orthogonalLoop=1;jettySize=auto;html=1;exitX=0.75;exitY=1;exitDx=0;exitDy=0;entryX=0.5;entryY=0;entryDx=0;entryDy=0;" parent="1" source="2" target="7" edge="1">
                    <mxGeometry relative="1" as="geometry"/>
                </mxCell>
                <mxCell id="13" style="edgeStyle=orthogonalEdgeStyle;rounded=0;orthogonalLoop=1;jettySize=auto;html=1;exitX=0.25;exitY=1;exitDx=0;exitDy=0;entryX=0.564;entryY=-0.033;entryDx=0;entryDy=0;entryPerimeter=0;" parent="1" source="2" target="3" edge="1">
                    <mxGeometry relative="1" as="geometry"/>
                </mxCell>
                <mxCell id="14" style="edgeStyle=orthogonalEdgeStyle;rounded=0;orthogonalLoop=1;jettySize=auto;html=1;exitX=0.5;exitY=1;exitDx=0;exitDy=0;entryX=0.5;entryY=0;entryDx=0;entryDy=0;" parent="1" source="2" target="6" edge="1">
                    <mxGeometry relative="1" as="geometry"/>
                </mxCell>
                <mxCell id="15" style="edgeStyle=orthogonalEdgeStyle;rounded=0;orthogonalLoop=1;jettySize=auto;html=1;exitX=0.5;exitY=1;exitDx=0;exitDy=0;entryX=0.5;entryY=0;entryDx=0;entryDy=0;" parent="1" source="2" target="5" edge="1">
                    <mxGeometry relative="1" as="geometry"/>
                </mxCell>
                <mxCell id="2" value="&lt;div class=&quot;O0&quot; style=&quot;margin-top: 0pt ; margin-bottom: 0pt ; margin-left: 0.38in ; text-indent: -0.38in&quot;&gt;&lt;font style=&quot;font-size: 16px&quot;&gt;out_kbd.v&lt;/font&gt;&lt;/div&gt;" style="rounded=1;whiteSpace=wrap;html=1;fillColor=#f0a30a;strokeColor=#BD7000;fontColor=#ffffff;shadow=0;glass=0;" parent="1" vertex="1">
                    <mxGeometry x="160" y="90" width="150" height="50" as="geometry"/>
                </mxCell>
                <mxCell id="3" value="&lt;div class=&quot;O0&quot; style=&quot;margin-top: 0pt ; margin-bottom: 0pt ; margin-left: 0.38in ; text-indent: -0.38in&quot;&gt;&lt;font style=&quot;font-size: 14px&quot;&gt;ps2_keyboard.v&lt;/font&gt;&lt;/div&gt;" style="rounded=1;whiteSpace=wrap;html=1;shadow=0;glass=0;fillColor=#f0a30a;strokeColor=#BD7000;fontColor=#ffffff;" parent="1" vertex="1">
                    <mxGeometry x="30" y="190" width="110" height="50" as="geometry"/>
                </mxCell>
                <mxCell id="20" style="edgeStyle=orthogonalEdgeStyle;rounded=0;orthogonalLoop=1;jettySize=auto;html=1;exitX=0.5;exitY=1;exitDx=0;exitDy=0;entryX=0.5;entryY=0;entryDx=0;entryDy=0;" parent="1" source="5" target="16" edge="1">
                    <mxGeometry relative="1" as="geometry"/>
                </mxCell>
                <mxCell id="21" style="edgeStyle=orthogonalEdgeStyle;rounded=0;orthogonalLoop=1;jettySize=auto;html=1;exitX=0.75;exitY=1;exitDx=0;exitDy=0;entryX=0.5;entryY=0;entryDx=0;entryDy=0;" parent="1" source="5" target="17" edge="1">
                    <mxGeometry relative="1" as="geometry"/>
                </mxCell>
                <mxCell id="22" style="edgeStyle=orthogonalEdgeStyle;rounded=0;orthogonalLoop=1;jettySize=auto;html=1;exitX=0.5;exitY=1;exitDx=0;exitDy=0;entryX=0.75;entryY=0;entryDx=0;entryDy=0;" parent="1" source="5" target="18" edge="1">
                    <mxGeometry relative="1" as="geometry"/>
                </mxCell>
                <mxCell id="23" style="edgeStyle=orthogonalEdgeStyle;rounded=0;orthogonalLoop=1;jettySize=auto;html=1;exitX=0.75;exitY=1;exitDx=0;exitDy=0;entryX=0.25;entryY=0;entryDx=0;entryDy=0;" parent="1" source="5" target="19" edge="1">
                    <mxGeometry relative="1" as="geometry"/>
                </mxCell>
                <mxCell id="5" value="&lt;div class=&quot;O0&quot; style=&quot;margin-top: 0pt ; margin-bottom: 0pt ; margin-left: 0.38in ; text-indent: -0.38in ; font-size: 14px&quot;&gt;roms_ascii.v&lt;/div&gt;" style="rounded=1;whiteSpace=wrap;html=1;shadow=0;glass=0;fillColor=#f0a30a;strokeColor=#BD7000;fontColor=#ffffff;" parent="1" vertex="1">
                    <mxGeometry x="110" y="250" width="110" height="50" as="geometry"/>
                </mxCell>
                <mxCell id="6" value="&lt;div class=&quot;O0&quot; style=&quot;margin-top: 0pt ; margin-bottom: 0pt ; margin-left: 0.38in ; text-indent: -0.38in&quot;&gt;sleep_or_not.v&lt;/div&gt;" style="rounded=1;whiteSpace=wrap;html=1;shadow=0;glass=0;fillColor=#f0a30a;strokeColor=#BD7000;fontColor=#ffffff;" parent="1" vertex="1">
                    <mxGeometry x="240" y="250" width="110" height="50" as="geometry"/>
                </mxCell>
                <mxCell id="7" value="&lt;div class=&quot;O0&quot; style=&quot;margin-top: 0pt ; margin-bottom: 0pt ; margin-left: 0.38in ; text-indent: -0.38in&quot;&gt;seg_7_out.v&lt;/div&gt;" style="rounded=1;whiteSpace=wrap;html=1;shadow=0;glass=0;fillColor=#f0a30a;strokeColor=#BD7000;fontColor=#ffffff;" parent="1" vertex="1">
                    <mxGeometry x="310" y="180" width="110" height="50" as="geometry"/>
                </mxCell>
                <mxCell id="11" style="edgeStyle=orthogonalEdgeStyle;rounded=0;orthogonalLoop=1;jettySize=auto;html=1;exitX=0.5;exitY=1;exitDx=0;exitDy=0;" parent="1" source="2" target="2" edge="1">
                    <mxGeometry relative="1" as="geometry"/>
                </mxCell>
                <mxCell id="16" value="&lt;div class=&quot;O0&quot; style=&quot;margin-top: 0pt ; margin-bottom: 0pt ; margin-left: 0.38in ; text-indent: -0.38in&quot;&gt;scancode.txt&lt;/div&gt;" style="rounded=1;whiteSpace=wrap;html=1;shadow=0;glass=0;fillColor=#f0a30a;strokeColor=#BD7000;fontColor=#ffffff;" parent="1" vertex="1">
                    <mxGeometry x="40" y="380" width="100" height="40" as="geometry"/>
                </mxCell>
                <mxCell id="17" value="&lt;div class=&quot;O0&quot; style=&quot;margin-top: 0pt ; margin-bottom: 0pt ; margin-left: 0.38in ; text-indent: -0.38in&quot;&gt;shiftcode.txt&lt;/div&gt;" style="rounded=1;whiteSpace=wrap;html=1;shadow=0;glass=0;fillColor=#f0a30a;strokeColor=#BD7000;fontColor=#ffffff;" parent="1" vertex="1">
                    <mxGeometry x="220" y="380" width="100" height="40" as="geometry"/>
                </mxCell>
                <mxCell id="18" value="&lt;div class=&quot;O0&quot; style=&quot;margin-top: 0pt ; margin-bottom: 0pt ; margin-left: 0.38in ; text-indent: -0.38in&quot;&gt;capcode.txt&lt;/div&gt;" style="rounded=1;whiteSpace=wrap;html=1;shadow=0;glass=0;fillColor=#f0a30a;strokeColor=#BD7000;fontColor=#ffffff;" parent="1" vertex="1">
                    <mxGeometry x="80" y="430" width="100" height="40" as="geometry"/>
                </mxCell>
                <mxCell id="19" value="&lt;div class=&quot;O0&quot; style=&quot;margin-top: 0pt ; margin-bottom: 0pt ; margin-left: 0.38in ; text-indent: -0.38in&quot;&gt;capshiftcode.txt&lt;/div&gt;" style="rounded=1;whiteSpace=wrap;html=1;shadow=0;glass=0;fillColor=#f0a30a;strokeColor=#BD7000;fontColor=#ffffff;" parent="1" vertex="1">
                    <mxGeometry x="185" y="430" width="100" height="40" as="geometry"/>
                </mxCell>
                <mxCell id="24" style="edgeStyle=orthogonalEdgeStyle;rounded=0;orthogonalLoop=1;jettySize=auto;html=1;exitX=0.5;exitY=1;exitDx=0;exitDy=0;" parent="1" source="19" target="19" edge="1">
                    <mxGeometry relative="1" as="geometry"/>
                </mxCell>
                <mxCell id="26" style="edgeStyle=orthogonalEdgeStyle;rounded=0;orthogonalLoop=1;jettySize=auto;html=1;exitX=0.5;exitY=1;exitDx=0;exitDy=0;entryX=0.5;entryY=0;entryDx=0;entryDy=0;" parent="1" source="25" target="2" edge="1">
                    <mxGeometry relative="1" as="geometry"/>
                </mxCell>
                <mxCell id="25" value="&lt;div class=&quot;O0&quot; style=&quot;margin-top: 0pt ; margin-bottom: 0pt ; margin-left: 0.38in ; text-indent: -0.38in&quot;&gt;&lt;font style=&quot;font-size: 18px&quot;&gt;exp08_4.v&lt;/font&gt;&lt;/div&gt;" style="rounded=1;whiteSpace=wrap;html=1;fillColor=#f0a30a;strokeColor=#BD7000;fontColor=#ffffff;shadow=0;glass=0;" parent="1" vertex="1">
                    <mxGeometry x="160" y="20" width="150" height="50" as="geometry"/>
                </mxCell>
            </root>
        </mxGraphModel>
    </diagram>
</mxfile>